<svg width="1000" height="1000" viewBox="0 0 1000 1000" fill="none" xmlns="http://www.w3.org/2000/svg">
<path d="M796.426 708.871H605.562L559.748 788.75C555.787 795.654 545.915 795.89 541.63 789.184L502.658 708.282L313.845 708.871C292.48 708.871 275 691.391 275 670.026V382.843C275 361.48 292.48 344 313.845 344H796.426C817.791 344 835.272 361.48 835.272 382.843V670.026C835.272 691.391 817.791 708.871 796.426 708.871Z" fill="#FFD55E"/>
<path d="M690.865 564.707H500.001L454.187 644.586C450.226 651.489 440.354 651.726 436.069 645.02L397.097 564.118L208.284 564.707C186.919 564.707 169.439 547.227 169.439 525.862V238.679C169.439 217.316 186.919 199.836 208.284 199.836H690.865C712.23 199.836 729.711 217.316 729.711 238.679V525.862C729.711 547.227 712.23 564.707 690.865 564.707Z" fill="white"/>
<path d="M690.426 555.871H499.562L453.748 635.75C449.787 642.654 439.915 642.89 435.63 636.184L396.658 555.282L207.845 555.871C186.48 555.871 169 538.391 169 517.026V229.843C169 208.48 186.48 191 207.845 191H690.426C711.791 191 729.272 208.48 729.272 229.843V517.026C729.272 538.391 711.791 555.871 690.426 555.871Z" fill="white"/>
<path d="M830.563 668.878C830.563 690.226 813.193 707.596 791.844 707.596H614.249C610.108 707.596 606.274 709.784 604.163 713.344L554.52 797.189L504.878 713.344C502.77 709.784 498.936 707.596 494.795 707.596H317.199C295.848 707.596 278.478 690.226 278.478 668.878V578.809H379.073L435.396 673.932C437.508 677.495 441.339 679.68 445.48 679.68C449.621 679.68 453.455 677.495 455.563 673.932L511.886 578.809H682.804C717.077 578.809 744.959 550.923 744.959 516.65V344.665H791.844C813.193 344.665 830.563 362.032 830.563 383.38V668.878ZM169.44 516.65V231.156C169.44 209.808 186.808 192.437 208.158 192.437H682.804C704.152 192.437 721.522 209.808 721.522 231.156V516.65C721.522 538.001 704.152 555.369 682.804 555.369H505.208C501.067 555.369 497.233 557.556 495.122 561.117L445.48 644.962L395.837 561.117C393.726 557.556 389.895 555.369 385.751 555.369H208.158C186.808 555.369 169.44 538.001 169.44 516.65ZM791.844 321.225H744.959V231.156C744.959 196.883 717.077 169 682.804 169H208.158C173.885 169 146 196.883 146 231.156V516.65C146 550.923 173.885 578.809 208.158 578.809H255.041V668.878C255.041 703.151 282.926 731.033 317.199 731.033H488.114L544.434 826.16C546.546 829.723 550.379 831.908 554.52 831.908C558.661 831.908 562.495 829.723 564.604 826.16L620.93 731.033H791.844C826.118 731.033 854 703.151 854 668.878V383.38C854 349.107 826.118 321.225 791.844 321.225Z" fill="#333333"/>
<path d="M322.342 386.777H283.497C274.519 386.777 267.169 379.431 267.169 370.45V331.604C267.169 322.626 274.519 315.277 283.497 315.277H322.342C331.324 315.277 338.67 322.626 338.67 331.604V370.45C338.67 379.431 331.324 386.777 322.342 386.777Z" fill="#48C0D8"/>
<path d="M477.093 386.777H438.247C429.269 386.777 421.92 379.431 421.92 370.45V331.604C421.92 322.626 429.269 315.277 438.247 315.277H477.093C486.074 315.277 493.42 322.626 493.42 331.604V370.45C493.42 379.431 486.074 386.777 477.093 386.777Z" fill="#48C0D8"/>
<path d="M631.844 386.777H592.998C584.02 386.777 576.671 379.431 576.671 370.45V331.604C576.671 322.626 584.02 315.277 592.998 315.277H631.844C640.825 315.277 648.171 322.626 648.171 331.604V370.45C648.171 379.431 640.825 386.777 631.844 386.777Z" fill="#48C0D8"/>
<path d="M262.033 344.636C260.043 344.636 258.362 346.316 258.362 348.307V388.979C258.362 390.969 260.043 392.649 262.033 392.649H302.705C304.695 392.649 306.375 390.969 306.375 388.979V348.307C306.375 346.316 304.695 344.636 302.705 344.636H262.033ZM302.705 416.137H262.033C247.058 416.137 234.875 403.953 234.875 388.979V348.307C234.875 333.332 247.058 321.149 262.033 321.149H302.705C317.679 321.149 329.863 333.332 329.863 348.307V388.979C329.863 403.953 317.679 416.137 302.705 416.137Z" fill="#333333"/>
<path d="M416.784 344.636C414.793 344.636 413.113 346.316 413.113 348.307V388.979C413.113 390.969 414.793 392.649 416.784 392.649H457.456C459.446 392.649 461.126 390.969 461.126 388.979V348.307C461.126 346.316 459.446 344.636 457.456 344.636H416.784ZM457.456 416.137H416.784C401.809 416.137 389.625 403.953 389.625 388.979V348.307C389.625 333.332 401.809 321.149 416.784 321.149H457.456C472.43 321.149 484.614 333.332 484.614 348.307V388.979C484.614 403.953 472.43 416.137 457.456 416.137Z" fill="#333333"/>
<path d="M571.533 344.636C569.543 344.636 567.863 346.316 567.863 348.307V388.979C567.863 390.969 569.543 392.649 571.533 392.649H612.205C614.195 392.649 615.875 390.969 615.875 388.979V348.307C615.875 346.316 614.195 344.636 612.205 344.636H571.533ZM612.205 416.137H571.533C556.558 416.137 544.375 403.953 544.375 388.979V348.307C544.375 333.332 556.558 321.149 571.533 321.149H612.205C627.182 321.149 639.363 333.332 639.363 348.307V388.979C639.363 403.953 627.182 416.137 612.205 416.137Z" fill="#333333"/>
</svg>
